<?xml version="1.0" encoding="UTF-8"?>
<!DOCTYPE svg PUBLIC "-//W3C//DTD SVG 1.1//EN" "http://www.w3.org/Graphics/SVG/1.1/DTD/svg11.dtd">
<!-- Creator: CorelDRAW X6 -->
<svg xmlns="http://www.w3.org/2000/svg" xml:space="preserve" width="100%" height="100%" version="1.1" style="shape-rendering:geometricPrecision; text-rendering:geometricPrecision; image-rendering:optimizeQuality; fill-rule:evenodd; clip-rule:evenodd"
viewBox="0 0 500 500"
 xmlns:xlink="http://www.w3.org/1999/xlink">
 <defs>
  <style type="text/css">
   <![CDATA[
    .fil3 {fill:#D8D8D8}
    .fil1 {fill:#DB2C00}
    .fil2 {fill:#F2F2F2}
    .fil0 {fill:#FF3300}
   ]]>
  </style>
 </defs>
 <g id="Layer_x0020_1">
  <metadata id="CorelCorpID_0Corel-Layer"/>
  <path class="fil0" d="M250 25l0 0 0 450 0 0c-124,0 -225,-101 -225,-225 0,-124 101,-225 225,-225z"/>
  <path class="fil1" d="M250 25l0 0 0 450 0 0c124,0 225,-101 225,-225 0,-124 -101,-225 -225,-225z"/>
  <polygon class="fil2" points="119,310 179,250 119,190 190,119 250,179 250,179 250,321 190,381 "/>
  <polygon class="fil3" points="381,310 321,250 381,190 310,119 250,179 250,179 250,321 310,381 "/>
 </g>
</svg>
